<?xml version="1.0" standalone="no"?><!DOCTYPE svg PUBLIC "-//W3C//DTD SVG 1.1//EN" "http://www.w3.org/Graphics/SVG/1.1/DTD/svg11.dtd"><svg t="1690448073646" class="icon" viewBox="0 0 1024 1024" version="1.1" xmlns="http://www.w3.org/2000/svg" p-id="1620" xmlns:xlink="http://www.w3.org/1999/xlink" width="128" height="128"><path d="M248.4 479.1h-89.2c-16.3 0-29.6-14.3-29.5-32 0-17.6 13.2-32 29.5-32h89.2c16.3 0 29.6 14.3 29.5 32 0 17.7-13.2 32-29.5 32zM246.9 609.7h-89.2c-16.3 0-29.6-14.3-29.5-32 0-17.7 13.2-32 29.5-32h89.2c16.3 0 29.6 14.3 29.5 32 0 17.7-13.2 32-29.5 32z" fill="#A8A8A8" p-id="1621"></path><path d="M792.3 895.4H274.9c-62.7-0.1-103.5-40.9-103.6-103.6v-75.2c0-17.7 14.3-32 32-32s32 14.3 32 32v75.2c0 27.4 12.2 39.6 39.7 39.7h517.4c27.4 0 39.6-12.2 39.7-39.7V232.2c0-27.4-12.2-39.6-39.7-39.7H274.9c-27.4 0-39.6 12.2-39.7 39.7v74.2c0 17.7-14.3 32-32 32s-32-14.3-32-32v-74.2c0.1-62.7 40.9-103.5 103.6-103.6h517.4c62.7 0.1 103.5 40.9 103.6 103.6v559.6c0 62.7-40.8 103.5-103.5 103.6z" fill="#A8A8A8" p-id="1622"></path><path d="M705 736.4c-17.7 0-32-14.3-32-32 0-71.4-58.1-129.5-129.5-129.5S414 633 414 704.4c0 17.7-14.3 32-32 32s-32-14.3-32-32c0-51.7 20.1-100.3 56.6-136.8s85.1-56.7 136.8-56.7 100.3 20.1 136.9 56.7S737 652.7 737 704.4c0 17.7-14.3 32-32 32z" fill="#A8A8A8" p-id="1623"></path><path d="M543.5 572.9c-76.5 0-138.7-62.2-138.7-138.7 0-76.5 62.2-138.7 138.7-138.7s138.7 62.2 138.7 138.7c-0.1 76.5-62.3 138.7-138.7 138.7z m0-213.3c-41.2 0-74.7 33.5-74.7 74.7s33.5 74.7 74.7 74.7 74.7-33.5 74.7-74.7-33.6-74.7-74.7-74.7z" fill="#A8A8A8" p-id="1624"></path></svg>