<?xml version="1.0" standalone="no"?><!DOCTYPE svg PUBLIC "-//W3C//DTD SVG 1.1//EN" "http://www.w3.org/Graphics/SVG/1.1/DTD/svg11.dtd"><svg t="1690452716219" class="icon" viewBox="0 0 1024 1024" version="1.1" xmlns="http://www.w3.org/2000/svg" p-id="4711" xmlns:xlink="http://www.w3.org/1999/xlink" width="128" height="128"><path d="M20.48 512c0 50.96448 41.86112 92.16 93.40928 92.16s93.40928-41.29792 93.40928-92.16c0-50.96448-41.86112-92.16-93.40928-92.16C62.34112 419.7376 20.48 461.03552 20.48 512z m398.11072 0c0 50.96448 41.86112 92.16 93.40928 92.16s93.40928-41.29792 93.40928-92.16c0-50.96448-41.86112-92.16-93.40928-92.16-51.54816-0.1024-93.40928 41.19552-93.40928 92.16z m398.11072 0c0 50.96448 41.86112 92.16 93.40928 92.16S1003.52 562.86208 1003.52 512c0-50.96448-41.86112-92.16-93.40928-92.16-51.54816-0.1024-93.40928 41.19552-93.40928 92.16z" fill="#9A9BAD" p-id="4712"></path></svg>